<svg width="62" height="21" viewBox="0 0 62 21" fill="none" xmlns="http://www.w3.org/2000/svg">
<path d="M28.0971 15.8288L24.4935 11.6625V15.8288H22.9663V6.51832H24.4935V10.765L28.1105 6.51832H30.0261L25.9805 11.1802L30.0931 15.8288H28.0971ZM32.9708 9.5191C33.1941 9.144 33.4888 8.85375 33.855 8.64834C34.2301 8.434 34.6722 8.32683 35.1812 8.32683V9.90759H34.7927C34.1944 9.90759 33.7389 10.0594 33.4263 10.3631C33.1227 10.6667 32.9708 11.1936 32.9708 11.9438V15.8288H31.4436V8.44739H32.9708V9.5191ZM43.3501 11.9572C43.3501 12.2341 43.3323 12.4842 43.2966 12.7074H37.6567C37.7014 13.2969 37.9202 13.7702 38.3131 14.1274C38.7061 14.4847 39.1884 14.6633 39.7599 14.6633C40.5816 14.6633 41.1621 14.3194 41.5015 13.6318H43.1492C42.9259 14.3105 42.5196 14.8687 41.9301 15.3063C41.3496 15.735 40.6262 15.9493 39.7599 15.9493C39.0544 15.9493 38.4203 15.793 37.8577 15.4805C37.3039 15.1589 36.8663 14.7124 36.5448 14.1408C36.2322 13.5603 36.0759 12.8905 36.0759 12.1314C36.0759 11.3723 36.2278 10.7069 36.5314 10.1353C36.844 9.55482 37.2771 9.10828 37.8309 8.7957C38.3935 8.48312 39.0365 8.32683 39.7599 8.32683C40.4565 8.32683 41.0772 8.47865 41.622 8.7823C42.1668 9.08595 42.591 9.51463 42.8947 10.0683C43.1983 10.6131 43.3501 11.2428 43.3501 11.9572ZM41.756 11.475C41.7471 10.9123 41.5461 10.4613 41.1532 10.1219C40.7602 9.78256 40.2735 9.61287 39.693 9.61287C39.166 9.61287 38.715 9.78256 38.3399 10.1219C37.9648 10.4524 37.7416 10.9034 37.6701 11.475H41.756ZM51.6182 11.9572C51.6182 12.2341 51.6003 12.4842 51.5646 12.7074L45.9248 12.7074C45.9694 13.2969 46.1882 13.7702 46.5812 14.1274C46.9741 14.4847 47.4564 14.6633 48.028 14.6633C48.8496 14.6633 49.4301 14.3194 49.7695 13.6318H51.4172C51.194 14.3105 50.7876 14.8687 50.1982 15.3063C49.6177 15.735 48.8943 15.9493 48.028 15.9493C47.3224 15.9493 46.6883 15.793 46.1257 15.4805C45.572 15.1589 45.1344 14.7124 44.8129 14.1408C44.5003 13.5603 44.344 12.8905 44.344 12.1314C44.344 11.3723 44.4958 10.7069 44.7995 10.1353C45.112 9.55482 45.5452 9.10828 46.0989 8.7957C46.6616 8.48312 47.3046 8.32683 48.028 8.32683C48.7246 8.32683 49.3453 8.47865 49.8901 8.7823C50.4348 9.08595 50.8591 9.51463 51.1627 10.0683C51.4664 10.6131 51.6182 11.2428 51.6182 11.9572ZM50.024 11.475C50.0151 10.9123 49.8142 10.4613 49.4212 10.1219C49.0282 9.78256 48.5415 9.61287 47.961 9.61287C47.4341 9.61287 46.9831 9.78256 46.608 10.1219C46.2329 10.4524 46.0096 10.9034 45.9381 11.475L50.024 11.475ZM52.612 12.1046C52.612 11.3633 52.7639 10.7069 53.0675 10.1353C53.3801 9.56375 53.7998 9.12167 54.3268 8.80909C54.8626 8.48758 55.4565 8.32683 56.1085 8.32683C56.5907 8.32683 57.0641 8.434 57.5285 8.64834C58.0018 8.85375 58.3769 9.13061 58.6538 9.47891V5.91549H60.1943V15.8288H58.6538V14.7169C58.4037 15.0741 58.0554 15.3688 57.6089 15.601C57.1712 15.8332 56.6666 15.9493 56.0951 15.9493C55.452 15.9493 54.8626 15.7886 54.3268 15.4671C53.7998 15.1366 53.3801 14.6811 53.0675 14.1006C52.7639 13.5112 52.612 12.8459 52.612 12.1046ZM58.6538 12.1314C58.6538 11.6223 58.5466 11.1802 58.3323 10.8051C58.1268 10.43 57.8545 10.1443 57.5151 9.94778C57.1757 9.7513 56.8095 9.65306 56.4166 9.65306C56.0236 9.65306 55.6575 9.7513 55.3181 9.94778C54.9787 10.1353 54.7019 10.4167 54.4875 10.7917C54.2821 11.1579 54.1794 11.5955 54.1794 12.1046C54.1794 12.6136 54.2821 13.0602 54.4875 13.4442C54.7019 13.8282 54.9787 14.123 55.3181 14.3284C55.6664 14.5249 56.0326 14.6231 56.4166 14.6231C56.8095 14.6231 57.1757 14.5249 57.5151 14.3284C57.8545 14.1319 58.1268 13.8461 58.3323 13.471C58.5466 13.087 58.6538 12.6404 58.6538 12.1314Z" fill="#1E255E"/>
<rect x="0.192551" y="2.50333" width="16.7454" height="16.7454" rx="3.34908" fill="#1E255E"/>
<path d="M5.61229 14.6036C5.30401 14.6036 5.05411 14.3537 5.05411 14.0454L5.05411 7.65297C5.05411 7.34469 5.30401 7.09479 5.61229 7.09479H6.19929C6.50756 7.09479 6.75747 7.34469 6.75747 7.65297V14.0454C6.75747 14.3537 6.50756 14.6036 6.19929 14.6036H5.61229ZM7.30899 11.1304C7.26479 11.0109 7.2628 10.8799 7.30334 10.7591L8.40557 7.47535C8.48189 7.24799 8.69491 7.09479 8.93474 7.09479H9.43867C9.81949 7.09479 10.0885 7.46773 9.96834 7.82909L8.99323 10.7615C8.95356 10.8808 8.95533 11.01 8.99827 11.1282L9.98881 13.8548C10.1211 14.2188 9.85147 14.6036 9.46418 14.6036H8.98239C8.7488 14.6036 8.53991 14.4581 8.45888 14.2391L7.30899 11.1304Z" fill="white"/>
<path d="M10.8045 13.8527C10.8045 13.5309 10.9615 13.2913 11.2756 13.134C11.4125 13.0697 11.5575 13.0375 11.7105 13.0375C12.0729 13.0375 12.3387 13.1769 12.5078 13.4558C12.5803 13.5774 12.6165 13.7097 12.6165 13.8527C12.6165 14.1817 12.4555 14.4177 12.1333 14.5607C11.9964 14.625 11.8555 14.6572 11.7105 14.6572C11.34 14.6572 11.0743 14.5142 10.9132 14.2282C10.8407 14.1066 10.8045 13.9814 10.8045 13.8527Z" fill="white"/>
</svg>
